<svg viewBox="0 0 79.224 79.224" style="enableBackground: new 0 0 79.224 79.224">
    <path d="M72.768,73.084C67.99,66.059,62.24,59.885,54.794,53.738c8.356-0.842,13.935-5.753,21.125-6.574
    c-2.111-1.27-4.206-1.893-6.211-2.727c-2.998-1.236-6.852,0.619-2.478-4.485c2.758-3.239,4.996-6.367,4.188-10.884
    c-0.325-1.84,1.663-4.08,2.546-6.157c0.438-1.02,1.643-1.975,0.294-3.443c-3.299,0.604-6.235,2.762-9.76,2.962
    c-3.86,0.221-5.975-0.926-5.564-5.312c0.273-2.892-0.089-5.838-0.144-8.765c-0.021-1.03-0.314-1.654-1.369-1.25
    C51.495,9.336,47.929,5.708,45.034,0c-1.685,4.688-2.513,8.427-6.824,9.32c-0.396,0.081-0.617,1.153-0.876,1.788
    c-2.32,5.768-3.972,6.21-8.776,2.231c-3.287-2.719-4.127-6.584-7.036-0.258c-0.231,0.508-1.93,0.385-2.95,0.465
    c-3.887,0.301-7.77,0.989-12.237-0.553c0.568,1.342,0.676,2.057,1.076,2.498c2.708,2.957,3.491,6.153,3.525,10.342
    c0.036,4.061,1.056,8.087-2.849,10.761c-2.026,1.388,0.007,2.204,1.258,2.736c2.902,1.241,5.208,2.009,7.654,4.001
    c9.075,4.682,4.31,7.176-0.883,9.328c-1.1,0.459-3.017,0.787-3.16,1.472c-1.213,5.66-5.996,8.717-9.65,13.456
    c5.528,1.215,11.216-0.562,14.332,4.962c0.552,0.993,1.846-0.105,2.765-0.564c8.459-4.247,10.915-10.975,13.522,6.82
    c0.027,0.182,0.532,0.28,0.812,0.418c6.802-11.506,7.779-17.241,15.16-10.65c-1.058-5.472,5.989-9.5,1.105-15.105
    c4.982,3.953,9.982,7.721,13.75,12.734c1.76,2.341,3.535,4.746,4.463,7.628c1.252,3.812,1.362,1.82-0.007,5.222
    c5.544-1.823,2.067,0.062,6.14-3.196C73.273,74.391,74.143,75.113,72.768,73.084z"/>
</svg>